<mxfile host="app.diagrams.net" modified="2023-09-19T00:38:53.043Z" agent="Mozilla/5.0 (Windows NT 10.0; Win64; x64) AppleWebKit/537.36 (KHTML, like Gecko) Chrome/117.0.0.0 Safari/537.36" version="21.7.5" etag="4O1fU5mKZzFZA1ybYu-I" type="github">
  <diagram name="第 1 页" id="p2BVIc17F2q44InQgNQE">
    <mxGraphModel>
      <root>
        <mxCell id="0" />
        <mxCell id="1" parent="0" />
      </root>
    </mxGraphModel>
  </diagram>
</mxfile>
